<svg width="15" height="14" viewBox="0 0 15 14" fill="none" xmlns="http://www.w3.org/2000/svg">
<path d="M8.52539 7L12.791 2.73438C12.8639 2.66146 12.9209 2.57943 12.9619 2.48828C13.0029 2.39714 13.0234 2.30143 13.0234 2.20117C13.0234 2.00065 12.9528 1.82975 12.8115 1.68848C12.6702 1.5472 12.4993 1.47656 12.2988 1.47656C12.1986 1.47656 12.1029 1.49707 12.0117 1.53809C11.9206 1.5791 11.8385 1.63607 11.7656 1.70898L7.5 5.97461L3.23438 1.70898C3.16146 1.64518 3.08398 1.59505 3.00195 1.55859C2.91992 1.52214 2.82878 1.50391 2.72852 1.50391C2.52799 1.50391 2.3571 1.57454 2.21582 1.71582C2.07454 1.8571 2.00391 2.028 2.00391 2.22852C2.00391 2.32878 2.02214 2.41992 2.05859 2.50195C2.09505 2.58398 2.14518 2.66146 2.20898 2.73438L6.47461 7L2.20898 11.2656C2.13607 11.3385 2.08138 11.4183 2.04492 11.5049C2.00846 11.5915 1.99023 11.6849 1.99023 11.7852C1.99023 11.8854 2.00846 11.9788 2.04492 12.0654C2.08138 12.152 2.13607 12.2272 2.20898 12.291C2.27279 12.3639 2.34798 12.4186 2.43457 12.4551C2.52116 12.4915 2.61458 12.5098 2.71484 12.5098C2.8151 12.5098 2.90853 12.4915 2.99512 12.4551C3.08171 12.4186 3.16146 12.3639 3.23438 12.291L7.5 8.02539L11.7656 12.291C11.8385 12.3639 11.9183 12.4186 12.0049 12.4551C12.0915 12.4915 12.1849 12.5098 12.2852 12.5098C12.3854 12.5098 12.4788 12.4915 12.5654 12.4551C12.652 12.4186 12.7272 12.3639 12.791 12.291C12.8639 12.2272 12.9186 12.152 12.9551 12.0654C12.9915 11.9788 13.0098 11.8854 13.0098 11.7852C13.0098 11.6849 12.9915 11.5915 12.9551 11.5049C12.9186 11.4183 12.8639 11.3385 12.791 11.2656L8.52539 7Z" fill="#00744B"/>
</svg>
