<svg width="16" height="19" viewBox="0 0 16 19" fill="none" xmlns="http://www.w3.org/2000/svg">
<path d="M10.309 14.7943L7.67014 12.1554L8.37934 11.4462L10.309 13.3759L14.2509 9.43403L14.9601 10.1432L10.309 14.7943ZM13.9375 7.96615H12.9479V4.55208H11.9583V6.03646H4.04167V4.55208H3.05208V14.4479H7.19184V15.4375H3.05208C2.7662 15.4375 2.5298 15.344 2.34288 15.1571C2.15596 14.9702 2.0625 14.7338 2.0625 14.4479V4.55208C2.0625 4.2662 2.15596 4.0298 2.34288 3.84288C2.5298 3.65596 2.7662 3.5625 3.05208 3.5625H6.38368C6.46065 3.17766 6.65032 2.86154 6.95269 2.61415C7.25506 2.36675 7.60417 2.24306 8 2.24306C8.39583 2.24306 8.74494 2.36675 9.04731 2.61415C9.34968 2.86154 9.53935 3.17766 9.61632 3.5625H12.9479C13.2338 3.5625 13.4702 3.65596 13.6571 3.84288C13.844 4.0298 13.9375 4.2662 13.9375 4.55208V7.96615ZM8 4.55208C8.18692 4.55208 8.34361 4.48886 8.47005 4.36241C8.5965 4.23597 8.65972 4.07928 8.65972 3.89236C8.65972 3.70544 8.5965 3.54876 8.47005 3.42231C8.34361 3.29586 8.18692 3.23264 8 3.23264C7.81308 3.23264 7.65639 3.29586 7.52995 3.42231C7.4035 3.54876 7.34028 3.70544 7.34028 3.89236C7.34028 4.07928 7.4035 4.23597 7.52995 4.36241C7.65639 4.48886 7.81308 4.55208 8 4.55208Z" fill="#222222"/>
</svg>
