<svg width="16" height="19" viewBox="0 0 16 19" fill="none" xmlns="http://www.w3.org/2000/svg">
<path d="M5.03125 12.6997C5.16319 12.6997 5.27865 12.6502 5.3776 12.5512C5.47656 12.4523 5.52604 12.3368 5.52604 12.2049C5.52604 12.0729 5.47656 11.9575 5.3776 11.8585C5.27865 11.7595 5.16319 11.7101 5.03125 11.7101C4.89931 11.7101 4.78385 11.7595 4.6849 11.8585C4.58594 11.9575 4.53646 12.0729 4.53646 12.2049C4.53646 12.3368 4.58594 12.4523 4.6849 12.5512C4.78385 12.6502 4.89931 12.6997 5.03125 12.6997ZM5.03125 9.99479C5.16319 9.99479 5.27865 9.94531 5.3776 9.84635C5.47656 9.7474 5.52604 9.63194 5.52604 9.5C5.52604 9.36806 5.47656 9.2526 5.3776 9.15365C5.27865 9.05469 5.16319 9.00521 5.03125 9.00521C4.89931 9.00521 4.78385 9.05469 4.6849 9.15365C4.58594 9.2526 4.53646 9.36806 4.53646 9.5C4.53646 9.63194 4.58594 9.7474 4.6849 9.84635C4.78385 9.94531 4.89931 9.99479 5.03125 9.99479ZM5.03125 7.28993C5.16319 7.28993 5.27865 7.24045 5.3776 7.14149C5.47656 7.04253 5.52604 6.92708 5.52604 6.79514C5.52604 6.66319 5.47656 6.54774 5.3776 6.44878C5.27865 6.34983 5.16319 6.30035 5.03125 6.30035C4.89931 6.30035 4.78385 6.34983 4.6849 6.44878C4.58594 6.54774 4.53646 6.66319 4.53646 6.79514C4.53646 6.92708 4.58594 7.04253 4.6849 7.14149C4.78385 7.24045 4.89931 7.28993 5.03125 7.28993ZM7.20833 12.6997H11.2326V11.7101H7.20833V12.6997ZM7.20833 9.99479H11.2326V9.00521H7.20833V9.99479ZM7.20833 7.28993H11.2326V6.30035H7.20833V7.28993ZM3.05208 15.4375C2.78819 15.4375 2.55729 15.3385 2.35937 15.1406C2.16146 14.9427 2.0625 14.7118 2.0625 14.4479V4.55208C2.0625 4.28819 2.16146 4.05729 2.35937 3.85938C2.55729 3.66146 2.78819 3.5625 3.05208 3.5625H12.9479C13.2118 3.5625 13.4427 3.66146 13.6406 3.85938C13.8385 4.05729 13.9375 4.28819 13.9375 4.55208V14.4479C13.9375 14.7118 13.8385 14.9427 13.6406 15.1406C13.4427 15.3385 13.2118 15.4375 12.9479 15.4375H3.05208ZM3.05208 14.4479H12.9479V4.55208H3.05208V14.4479Z" fill="#222222"/>
</svg>
