<svg width="16" height="19" viewBox="0 0 16 19" fill="none" xmlns="http://www.w3.org/2000/svg">
<path d="M2.72222 16.0972V11.809C2.72222 11.5451 2.82118 11.3142 3.0191 11.1163C3.21701 10.9184 3.44792 10.8195 3.71181 10.8195H12.2882C12.5521 10.8195 12.783 10.9184 12.9809 11.1163C13.1788 11.3142 13.2778 11.5451 13.2778 11.809V16.0972H2.72222ZM3.71181 13.4583H12.2882V11.809H3.71181V13.4583ZM8 10.8195L4.71788 6.2014C4.71788 5.28878 5.03675 4.51086 5.67448 3.86763C6.31221 3.2244 7.08738 2.90278 8 2.90278C8.91262 2.90278 9.68779 3.2244 10.3255 3.86763C10.9633 4.51086 11.2821 5.28878 11.2821 6.2014L8 10.8195ZM8 9.53299L10.2925 6.2014C10.2925 5.56366 10.0699 5.01939 9.62457 4.56858C9.17925 4.11777 8.63773 3.89237 8 3.89237C7.36227 3.89237 6.82075 4.11777 6.37543 4.56858C5.93012 5.01939 5.70747 5.56366 5.70747 6.2014L8 9.53299Z" fill="#222222"/>
</svg>
