<svg width="56" height="54" viewBox="0 0 56 54" fill="none" xmlns="http://www.w3.org/2000/svg">
<g filter="url(#filter0_ddd_10_913)">
<mask id="path-1-inside-1_10_913" fill="white">
<path d="M7 26C7 14.402 16.402 5 28 5C39.598 5 49 14.402 49 26C49 37.598 39.598 47 28 47C16.402 47 7 37.598 7 26Z"/>
</mask>
<path d="M7 26C7 14.402 16.402 5 28 5C39.598 5 49 14.402 49 26C49 37.598 39.598 47 28 47C16.402 47 7 37.598 7 26Z" fill="#00744B"/>
<path d="M28 47V45C17.5066 45 9 36.4934 9 26H7H5C5 38.7025 15.2975 49 28 49V47ZM49 26H47C47 36.4934 38.4934 45 28 45V47V49C40.7025 49 51 38.7025 51 26H49ZM28 5V7C38.4934 7 47 15.5066 47 26H49H51C51 13.2975 40.7025 3 28 3V5ZM28 5V3C15.2975 3 5 13.2975 5 26H7H9C9 15.5066 17.5066 7 28 7V5Z" fill="#00744B" mask="url(#path-1-inside-1_10_913)"/>
<path d="M28 25.9783C27.0451 25.9783 26.2639 25.6745 25.6562 25.0668C25.0486 24.4592 24.7448 23.6779 24.7448 22.7231C24.7448 21.7682 25.0486 20.987 25.6562 20.3793C26.2639 19.7717 27.0451 19.4679 28 19.4679C28.9548 19.4679 29.7361 19.7717 30.3437 20.3793C30.9514 20.987 31.2552 21.7682 31.2552 22.7231C31.2552 23.6779 30.9514 24.4592 30.3437 25.0668C29.7361 25.6745 28.9548 25.9783 28 25.9783ZM21.0555 32.9444V30.9045C21.0555 30.3547 21.193 29.8845 21.4679 29.4939C21.7428 29.1033 22.0972 28.8067 22.5312 28.6042C23.5006 28.1701 24.4301 27.8446 25.3199 27.6276C26.2096 27.4106 27.103 27.3021 28 27.3021C28.897 27.3021 29.7867 27.4142 30.6693 27.6385C31.5518 27.8627 32.4777 28.1846 33.447 28.6042C33.8955 28.8067 34.2572 29.1033 34.5321 29.4939C34.807 29.8845 34.9444 30.3547 34.9444 30.9045V32.9444H21.0555ZM22.3576 31.6424H33.6423V30.9045C33.6423 30.673 33.5736 30.4524 33.4362 30.2426C33.2987 30.0328 33.1287 29.8773 32.9262 29.776C32.0003 29.3275 31.1539 29.0201 30.3871 28.8537C29.6204 28.6874 28.8246 28.6042 28 28.6042C27.1753 28.6042 26.3724 28.6874 25.5911 28.8537C24.8099 29.0201 23.9635 29.3275 23.0521 29.776C22.8495 29.8773 22.6831 30.0328 22.5529 30.2426C22.4227 30.4524 22.3576 30.673 22.3576 30.9045V31.6424ZM28 24.6762C28.5642 24.6762 29.0308 24.4918 29.3997 24.1228C29.7686 23.7539 29.9531 23.2873 29.9531 22.7231C29.9531 22.1589 29.7686 21.6923 29.3997 21.3233C29.0308 20.9544 28.5642 20.77 28 20.77C27.4358 20.77 26.9692 20.9544 26.6002 21.3233C26.2313 21.6923 26.0469 22.1589 26.0469 22.7231C26.0469 23.2873 26.2313 23.7539 26.6002 24.1228C26.9692 24.4918 27.4358 24.6762 28 24.6762Z" fill="white"/>
</g>
<defs>
<filter id="filter0_ddd_10_913" x="2" y="0" width="54" height="54" filterUnits="userSpaceOnUse" color-interpolation-filters="sRGB">
<feFlood flood-opacity="0" result="BackgroundImageFix"/>
<feColorMatrix in="SourceAlpha" type="matrix" values="0 0 0 0 0 0 0 0 0 0 0 0 0 0 0 0 0 0 127 0" result="hardAlpha"/>
<feMorphology radius="1" operator="dilate" in="SourceAlpha" result="effect1_dropShadow_10_913"/>
<feOffset dx="1" dy="1"/>
<feGaussianBlur stdDeviation="2.5"/>
<feComposite in2="hardAlpha" operator="out"/>
<feColorMatrix type="matrix" values="0 0 0 0 0 0 0 0 0 0 0 0 0 0 0 0 0 0 0.12 0"/>
<feBlend mode="normal" in2="BackgroundImageFix" result="effect1_dropShadow_10_913"/>
<feColorMatrix in="SourceAlpha" type="matrix" values="0 0 0 0 0 0 0 0 0 0 0 0 0 0 0 0 0 0 127 0" result="hardAlpha"/>
<feMorphology radius="1" operator="dilate" in="SourceAlpha" result="effect2_dropShadow_10_913"/>
<feOffset dx="1" dy="1"/>
<feGaussianBlur stdDeviation="2.5"/>
<feComposite in2="hardAlpha" operator="out"/>
<feColorMatrix type="matrix" values="0 0 0 0 0 0 0 0 0 0 0 0 0 0 0 0 0 0 0.14 0"/>
<feBlend mode="normal" in2="effect1_dropShadow_10_913" result="effect2_dropShadow_10_913"/>
<feColorMatrix in="SourceAlpha" type="matrix" values="0 0 0 0 0 0 0 0 0 0 0 0 0 0 0 0 0 0 127 0" result="hardAlpha"/>
<feMorphology radius="1" operator="erode" in="SourceAlpha" result="effect3_dropShadow_10_913"/>
<feOffset dx="1" dy="1"/>
<feGaussianBlur stdDeviation="1"/>
<feComposite in2="hardAlpha" operator="out"/>
<feColorMatrix type="matrix" values="0 0 0 0 0 0 0 0 0 0 0 0 0 0 0 0 0 0 0.25 0"/>
<feBlend mode="normal" in2="effect2_dropShadow_10_913" result="effect3_dropShadow_10_913"/>
<feBlend mode="normal" in="SourceGraphic" in2="effect3_dropShadow_10_913" result="shape"/>
</filter>
</defs>
</svg>
