<svg width="46" height="44" viewBox="0 0 46 44" fill="none" xmlns="http://www.w3.org/2000/svg">
<path d="M5.75391 43.2337C8.92078 43.2337 11.5083 40.6217 11.5083 37.425V0H45.1081V37.425C45.1081 40.6217 42.5206 43.2337 39.3537 43.2337" fill="#1659A2"/>
<path d="M33.5998 37.4249V33.0197H0V37.4249C0 40.6216 2.58757 43.2336 5.75445 43.2336H39.3542C36.1873 43.2336 33.5998 40.6216 33.5998 37.4249Z" fill="#002D5D"/>
<path d="M21.821 7.4458H17.5342V9.31705H21.821V7.4458Z" fill="white"/>
<path d="M38.3112 7.4458H25.1416V9.31705H38.3112V7.4458Z" fill="#F7C604"/>
<path d="M21.821 14.0731H17.5342V15.9444H21.821V14.0731Z" fill="white"/>
<path d="M38.3112 14.0731H25.1416V15.9444H38.3112V14.0731Z" fill="#F7C604"/>
<path d="M21.821 20.7007H17.5342V22.5719H21.821V20.7007Z" fill="white"/>
<path d="M38.3112 20.7007H25.1416V22.5719H38.3112V20.7007Z" fill="#F7C604"/>
<path d="M21.821 27.328H17.5342V29.1993H21.821V27.328Z" fill="white"/>
<path d="M38.3112 27.328H25.1416V29.1993H38.3112V27.328Z" fill="#F7C604"/>
<path opacity="0.1" d="M45.1088 27.64V5.37989C44.6454 5.30192 44.1433 5.26294 43.6412 5.26294C37.5006 5.26294 32.5186 10.2919 32.5186 16.4904C32.5186 22.689 37.5006 27.7179 43.6412 27.7179C44.1433 27.7569 44.6454 27.7179 45.1088 27.64Z" fill="#0C1E5B"/>
</svg>
