<svg width="59" height="44" viewBox="0 0 59 44" fill="none" xmlns="http://www.w3.org/2000/svg">
<path d="M5.75488 43.2337C8.92176 43.2337 11.5093 40.6217 11.5093 37.425V0H45.1091V37.425C45.1091 40.6217 42.5215 43.2337 39.3547 43.2337" fill="#C1C5D0"/>
<path d="M33.5998 37.4249V33.0197H0V37.4249C0 40.6216 2.58757 43.2336 5.75445 43.2336H39.3542C36.1873 43.2336 33.5998 40.6216 33.5998 37.4249Z" fill="#74777E"/>
<path d="M21.821 7.4458H17.5342V9.31705H21.821V7.4458Z" fill="#F7C604"/>
<path d="M38.3112 7.4458H25.1416V9.31705H38.3112V7.4458Z" fill="#F3F2F7"/>
<path d="M21.821 14.0731H17.5342V15.9444H21.821V14.0731Z" fill="#F7C604"/>
<path d="M38.3112 14.0731H25.1416V15.9444H38.3112V14.0731Z" fill="#F3F2F7"/>
<path d="M21.821 20.7007H17.5342V22.5719H21.821V20.7007Z" fill="#F7C604"/>
<path d="M38.3112 20.7007H25.1416V22.5719H38.3112V20.7007Z" fill="#F3F2F7"/>
<path d="M21.821 27.328H17.5342V29.1993H21.821V27.328Z" fill="#F7C604"/>
<path d="M38.3112 27.328H25.1416V29.1993H38.3112V27.328Z" fill="#F3F2F7"/>
<path opacity="0.1" d="M45.1088 27.64V5.37989C44.6454 5.30192 44.1433 5.26294 43.6412 5.26294C37.5006 5.26294 32.5186 10.2919 32.5186 16.4904C32.5186 22.689 37.5006 27.7179 43.6412 27.7179C44.1433 27.7569 44.6454 27.7179 45.1088 27.64Z" fill="#0C1E5B"/>
<path d="M47.1228 25.4552C53.2658 25.4552 58.2456 20.4285 58.2456 14.2276C58.2456 8.02678 53.2658 3 47.1228 3C40.9798 3 36 8.02678 36 14.2276C36 20.4285 40.9798 25.4552 47.1228 25.4552Z" fill="#FF5B5B"/>
<path d="M47.5 22C43.3577 22 40 18.6423 40 14.5C40 10.3577 43.3577 7 47.5 7C51.6423 7 55 10.3577 55 14.5C55 18.6423 51.6423 22 47.5 22ZM47.5 20.5C49.0913 20.5 50.6174 19.8679 51.7426 18.7426C52.8679 17.6174 53.5 16.0913 53.5 14.5C53.5 12.9087 52.8679 11.3826 51.7426 10.2574C50.6174 9.13214 49.0913 8.5 47.5 8.5C45.9087 8.5 44.3826 9.13214 43.2574 10.2574C42.1321 11.3826 41.5 12.9087 41.5 14.5C41.5 16.0913 42.1321 17.6174 43.2574 18.7426C44.3826 19.8679 45.9087 20.5 47.5 20.5ZM44.8923 10.8318L51.1683 17.1077C50.8761 17.5177 50.5177 17.8761 50.1077 18.1683L43.8318 11.8923C44.1239 11.4825 44.4823 11.1236 44.8923 10.8318Z" fill="#F5F5F5"/>
</svg>
