<svg width="59" height="44" viewBox="0 0 59 44" fill="none" xmlns="http://www.w3.org/2000/svg">
<path d="M5.75488 43.2337C8.92176 43.2337 11.5093 40.6217 11.5093 37.425V0H45.1091V37.425C45.1091 40.6217 42.5215 43.2337 39.3547 43.2337" fill="#F6E190"/>
<path d="M33.5998 37.4249V33.0197H0V37.4249C0 40.6216 2.58757 43.2336 5.75445 43.2336H39.3542C36.1873 43.2336 33.5998 40.6216 33.5998 37.4249Z" fill="#978A59"/>
<path d="M21.821 7.4458H17.5342V9.31705H21.821V7.4458Z" fill="#F7C604"/>
<path d="M38.3112 7.4458H25.1416V9.31705H38.3112V7.4458Z" fill="#F3F2F7"/>
<path d="M21.821 14.0731H17.5342V15.9444H21.821V14.0731Z" fill="#F7C604"/>
<path d="M38.3112 14.0731H25.1416V15.9444H38.3112V14.0731Z" fill="#F3F2F7"/>
<path d="M21.821 20.7007H17.5342V22.5719H21.821V20.7007Z" fill="#F7C604"/>
<path d="M38.3112 20.7007H25.1416V22.5719H38.3112V20.7007Z" fill="#F3F2F7"/>
<path d="M21.821 27.328H17.5342V29.1993H21.821V27.328Z" fill="#F7C604"/>
<path d="M38.3112 27.328H25.1416V29.1993H38.3112V27.328Z" fill="#F3F2F7"/>
<path opacity="0.1" d="M45.1088 27.64V5.37989C44.6454 5.30192 44.1433 5.26294 43.6412 5.26294C37.5006 5.26294 32.5186 10.2919 32.5186 16.4904C32.5186 22.689 37.5006 27.7179 43.6412 27.7179C44.1433 27.7569 44.6454 27.7179 45.1088 27.64Z" fill="#0C1E5B"/>
<path d="M47.1228 25.4552C53.2658 25.4552 58.2456 20.4285 58.2456 14.2276C58.2456 8.02678 53.2658 3 47.1228 3C40.9798 3 36 8.02678 36 14.2276C36 20.4285 40.9798 25.4552 47.1228 25.4552Z" fill="#FF5B5B"/>
<path d="M47 22C42.8577 22 39.5 18.6423 39.5 14.5C39.5 10.3577 42.8577 7 47 7C51.1423 7 54.5 10.3577 54.5 14.5C54.5 18.6423 51.1423 22 47 22ZM47 20.5C48.5913 20.5 50.1174 19.8679 51.2426 18.7426C52.3679 17.6174 53 16.0913 53 14.5C53 12.9087 52.3679 11.3826 51.2426 10.2574C50.1174 9.13214 48.5913 8.5 47 8.5C45.4087 8.5 43.8826 9.13214 42.7574 10.2574C41.6321 11.3826 41 12.9087 41 14.5C41 16.0913 41.6321 17.6174 42.7574 18.7426C43.8826 19.8679 45.4087 20.5 47 20.5ZM43.25 13.75H50.75V15.25H43.25V13.75Z" fill="#F5F5F5"/>
</svg>
