<svg width="33" height="33" viewBox="0 0 33 33" fill="none" xmlns="http://www.w3.org/2000/svg">
<g clip-path="url(#clip0_100_8899)">
<path d="M2.88753 3.50626C3.33509 4.10232 4.22815 5.23876 6.44534 6.13388C8.69965 7.04138 12.3957 7.73026 18.478 7.22288C22.6442 6.87638 25.5544 8.27476 27.4003 10.4321C29.2071 12.5441 29.9063 15.2831 29.9063 17.5313C29.9063 18.0043 29.8877 18.5089 29.8506 19.0451C27.6107 17.0198 24.4963 16.005 21.4294 15.4688C17.2714 14.8748 12.7917 14.5509 9.90003 11.2509C9.60715 10.9168 9.0709 11.0406 9.11834 11.4819C9.34109 13.5135 11.3953 15.2357 12.9216 16.2422C17.8097 19.4721 24.8263 15.9988 28.5966 22.5761C29.6382 24.2261 31.4305 28.1449 32.206 31.4284C32.3503 32.043 32.0698 32.6886 31.4758 32.9031C31.369 32.945 31.2575 32.9741 31.1438 32.9897C30.6356 33.041 30.1265 32.9019 29.715 32.5994C29.3035 32.2968 29.0189 31.8524 28.9163 31.3521C28.6482 29.3514 28.0995 27.4065 27.126 25.6389C25.1068 27.6086 21.7903 28.875 16.5 28.875C12.6762 28.875 9.65253 27.753 7.3219 25.9153C5.00365 24.0859 3.42584 21.5944 2.39253 18.9379C0.330026 13.6538 0.330026 7.51988 1.0519 3.92288L1.50565 1.66238L2.88753 3.50626Z" fill="#A7ECAC"/>
</g>
<defs>
<clipPath id="clip0_100_8899">
<rect width="33" height="33" fill="white"/>
</clipPath>
</defs>
</svg>
