<svg width="40" height="31" viewBox="0 0 40 31" fill="none" xmlns="http://www.w3.org/2000/svg">
<g clip-path="url(#clip0_100_8897)">
<path d="M28.1166 12.6525C28.1166 12.2717 27.9775 11.9422 27.6993 11.664C27.421 11.3858 27.0915 11.2466 26.7108 11.2466C24.192 11.2466 21.8636 11.6091 19.7256 12.334C17.5875 13.0588 15.6875 14.04 14.0254 15.2774C12.3633 16.5148 10.6389 18.122 8.85234 20.099C8.5741 20.4065 8.43498 20.736 8.43498 21.0875C8.43498 21.4682 8.5741 21.7977 8.85234 22.0759C9.13058 22.3542 9.46007 22.4933 9.84081 22.4933C10.1923 22.4933 10.5218 22.3542 10.8293 22.0759C11.2247 21.7245 11.7665 21.2046 12.4548 20.5163C13.143 19.8281 13.6336 19.3448 13.9265 19.0666C15.9327 17.2507 17.8987 15.962 19.8244 15.2005C21.7501 14.439 24.0456 14.0583 26.7108 14.0583C27.0915 14.0583 27.421 13.9192 27.6993 13.6409C27.9775 13.3627 28.1166 13.0332 28.1166 12.6525ZM39.3633 8.30319C39.3633 9.69437 39.2168 11.1075 38.9239 12.5426C38.2503 15.8229 36.8994 18.6273 34.8712 20.9557C32.843 23.2841 30.2254 25.2464 27.0183 26.8426C23.8845 28.4241 20.6774 29.2149 17.3972 29.2149C15.2298 29.2149 13.1357 28.8708 11.1148 28.1825C10.8952 28.1093 10.2508 27.8018 9.18183 27.2599C8.11281 26.7181 7.4099 26.4472 7.07308 26.4472C6.83878 26.4472 6.54956 26.6815 6.20542 27.1501C5.86129 27.6187 5.5318 28.1313 5.21695 28.6877C4.9021 29.2442 4.51769 29.7567 4.06373 30.2254C3.60976 30.694 3.17044 30.9283 2.74576 30.9283C2.11607 30.9283 1.65112 30.8001 1.35092 30.5439C1.05071 30.2876 0.717559 29.8519 0.351458 29.2369C0.322169 29.1783 0.278237 29.0978 0.219661 28.9953C0.161085 28.8927 0.120814 28.8195 0.0988474 28.7756C0.0768813 28.7317 0.0549152 28.6621 0.0329491 28.5669C0.010983 28.4717 0 28.3729 0 28.2704C0 27.7578 0.226983 27.2197 0.680949 26.6559C1.13492 26.0921 1.63281 25.6125 2.17464 25.2171C2.71647 24.8217 3.21437 24.4117 3.66834 23.987C4.1223 23.5623 4.34929 23.2108 4.34929 22.9326C4.34929 22.874 4.24678 22.5958 4.04176 22.0979C3.83675 21.6 3.71959 21.2778 3.6903 21.1314C3.55851 20.3845 3.49261 19.623 3.49261 18.8469C3.49261 17.1628 3.81112 15.552 4.44814 14.0144C5.08515 12.4767 5.95647 11.1258 7.0621 9.96163C8.16773 8.79742 9.41613 7.77966 10.8073 6.90834C12.1985 6.03702 13.6922 5.33776 15.2884 4.81058C16.0938 4.54698 17.1555 4.36027 18.4735 4.25044C19.7915 4.14061 21.1058 4.07471 22.4164 4.05275C23.727 4.03078 25.034 3.98685 26.3374 3.92095C27.6407 3.85505 28.8378 3.67932 29.9288 3.39376C31.0198 3.1082 31.8508 2.69451 32.422 2.15268L33.07 1.50468L33.718 0.889627L34.311 0.450305L35.1128 0.0988474L36.0683 0C36.6395 0 37.1557 0.336814 37.6169 1.01044C38.0782 1.68407 38.426 2.50414 38.6603 3.47064C38.8946 4.43715 39.0704 5.34508 39.1875 6.19444C39.3047 7.0438 39.3633 7.74671 39.3633 8.30319Z" fill="#A7ECAC"/>
</g>
<defs>
<clipPath id="clip0_100_8897">
<rect width="39.3633" height="30.9283" fill="white"/>
</clipPath>
</defs>
</svg>
