<svg width="15" height="14" viewBox="0 0 15 14" fill="none" xmlns="http://www.w3.org/2000/svg">
<path d="M4.73242 14H2.32617C2.31706 14 2.30339 14 2.28516 14C2.26693 14 2.2487 14 2.23047 14C1.66536 14 1.18001 13.804 0.774414 13.4121C0.368815 13.0202 0.152344 12.5417 0.125 11.9766V2.02344C0.152344 1.45833 0.368815 0.979817 0.774414 0.587891C1.18001 0.195964 1.66536 0 2.23047 0C2.2487 0 2.26693 0 2.28516 0C2.30339 0 2.31706 0 2.32617 0H4.73242C4.89648 0 5.03548 0.0592451 5.14941 0.177734C5.26335 0.296224 5.32031 0.4375 5.32031 0.601562C5.32031 0.765625 5.26335 0.906901 5.14941 1.02539C5.03548 1.14388 4.89648 1.20312 4.73242 1.20312H2.32617C2.31706 1.20312 2.30566 1.20312 2.29199 1.20312C2.27832 1.20312 2.26237 1.20312 2.24414 1.20312C2.00716 1.20312 1.80208 1.27832 1.62891 1.42871C1.45573 1.5791 1.35547 1.76823 1.32812 1.99609V11.9766C1.35547 12.2044 1.45573 12.3958 1.62891 12.5508C1.80208 12.7057 2.00716 12.7832 2.24414 12.7832C2.26237 12.7832 2.27832 12.7809 2.29199 12.7764C2.30566 12.7718 2.31706 12.7695 2.32617 12.7695H4.73242C4.89648 12.7695 5.03548 12.8288 5.14941 12.9473C5.26335 13.0658 5.32031 13.207 5.32031 13.3711C5.32031 13.5352 5.26335 13.6764 5.14941 13.7949C5.03548 13.9134 4.89648 13.9727 4.73242 13.9727V14ZM10.3242 10.8008C10.2422 10.8008 10.1647 10.7848 10.0918 10.7529C10.0189 10.721 9.95508 10.6777 9.90039 10.623C9.8457 10.5684 9.80241 10.5046 9.77051 10.4316C9.73861 10.3587 9.72266 10.2812 9.72266 10.1992C9.72266 10.1172 9.73861 10.0397 9.77051 9.9668C9.80241 9.89388 9.8457 9.83008 9.90039 9.77539L12.6758 7L9.90039 4.22461C9.8457 4.16992 9.80013 4.10384 9.76367 4.02637C9.72721 3.94889 9.70898 3.86914 9.70898 3.78711C9.70898 3.62305 9.76823 3.48177 9.88672 3.36328C10.0052 3.24479 10.1465 3.18555 10.3105 3.18555C10.3926 3.18555 10.4723 3.20378 10.5498 3.24023C10.6273 3.27669 10.6934 3.32227 10.748 3.37695L13.9473 6.57617C14.002 6.63086 14.0452 6.69466 14.0771 6.76758C14.109 6.84049 14.125 6.91797 14.125 7C14.125 7.08203 14.109 7.15951 14.0771 7.23242C14.0452 7.30534 14.002 7.36914 13.9473 7.42383L10.748 10.623C10.6934 10.6777 10.6296 10.721 10.5566 10.7529C10.4837 10.7848 10.4062 10.8008 10.3242 10.8008ZM13.5234 7.60156H4.73242C4.55924 7.60156 4.41569 7.54232 4.30176 7.42383C4.18783 7.30534 4.13086 7.16406 4.13086 7C4.13086 6.83594 4.18783 6.69466 4.30176 6.57617C4.41569 6.45768 4.55924 6.39844 4.73242 6.39844H13.5234C13.6875 6.39844 13.8288 6.45768 13.9473 6.57617C14.0658 6.69466 14.125 6.83594 14.125 7C14.125 7.16406 14.0658 7.30534 13.9473 7.42383C13.8288 7.54232 13.6875 7.60156 13.5234 7.60156Z" fill="#6C757D"/>
</svg>
