<svg width="14" height="14" viewBox="0 0 14 14" fill="none" xmlns="http://www.w3.org/2000/svg">
<path d="M7 6.78125C6.53516 6.78125 6.09766 6.6901 5.6875 6.50781C5.26823 6.33464 4.90592 6.0931 4.60059 5.7832C4.29525 5.47331 4.05599 5.11328 3.88281 4.70312C3.70052 4.29297 3.60938 3.85547 3.60938 3.39062C3.60938 2.91667 3.70052 2.47461 3.88281 2.06445C4.05599 1.6543 4.29525 1.29655 4.60059 0.991211C4.90592 0.685872 5.26823 0.446614 5.6875 0.273438C6.09766 0.0911455 6.53516 0 7 0C7.46484 0 7.90234 0.0911455 8.3125 0.273438C8.73177 0.446614 9.09408 0.685872 9.39941 0.991211C9.70475 1.29655 9.94401 1.6543 10.1172 2.06445C10.2995 2.47461 10.3906 2.91667 10.3906 3.39062C10.3906 3.85547 10.2995 4.29297 10.1172 4.70312C9.94401 5.11328 9.70475 5.47331 9.39941 5.7832C9.09408 6.0931 8.73177 6.33464 8.3125 6.50781C7.90234 6.6901 7.46484 6.78125 7 6.78125ZM7 1.35352C6.4349 1.35352 5.9541 1.55176 5.55762 1.94824C5.16113 2.34473 4.96289 2.82552 4.96289 3.39062C4.96289 3.94661 5.16113 4.42285 5.55762 4.81934C5.9541 5.21582 6.4349 5.41406 7 5.41406C7.5651 5.41406 8.0459 5.21582 8.44238 4.81934C8.83887 4.42285 9.03711 3.94661 9.03711 3.39062C9.03711 2.82552 8.83887 2.34473 8.44238 1.94824C8.0459 1.55176 7.5651 1.35352 7 1.35352ZM13.3164 13.0977C13.1341 13.0977 12.9769 13.0316 12.8447 12.8994C12.7126 12.7673 12.6465 12.6055 12.6465 12.4141C12.6465 11.9766 12.5736 11.5755 12.4277 11.2109C12.2728 10.8555 11.9902 10.5501 11.5801 10.2949C11.1699 10.0397 10.5957 9.83919 9.85742 9.69336C9.12825 9.55664 8.17578 9.48828 7 9.48828C5.82422 9.48828 4.87174 9.55664 4.14258 9.69336C3.4043 9.83919 2.83008 10.0397 2.41992 10.2949C2.00977 10.5501 1.72721 10.8555 1.57227 11.2109C1.42643 11.5755 1.35352 11.9766 1.35352 12.4141C1.35352 12.6055 1.28743 12.7673 1.15527 12.8994C1.02311 13.0316 0.865885 13.0977 0.683594 13.0977C0.492188 13.0977 0.330404 13.0316 0.198242 12.8994C0.0660807 12.7673 0 12.6055 0 12.4141C0 11.3477 0.264323 10.5228 0.792969 9.93945C1.33073 9.35612 1.97103 8.93001 2.71387 8.66113C3.45671 8.39225 4.22461 8.23958 5.01758 8.20312C5.81966 8.15755 6.48047 8.13477 7 8.13477C7.51953 8.13477 8.18034 8.15755 8.98242 8.20312C9.77539 8.23958 10.5433 8.39225 11.2861 8.66113C12.029 8.93001 12.6693 9.35612 13.207 9.93945C13.7357 10.5228 14 11.3477 14 12.4141C14 12.6055 13.9339 12.7673 13.8018 12.8994C13.6696 13.0316 13.5078 13.0977 13.3164 13.0977Z" fill="#6C757D"/>
</svg>
