<svg width="12" height="14" viewBox="0 0 12 14" fill="none" xmlns="http://www.w3.org/2000/svg">
<path d="M11.8619 3.31605V5.67652C11.4495 5.63623 10.9136 5.54252 10.3209 5.3253C9.54681 5.04152 8.97066 4.65351 8.59327 4.35308V9.12396L8.58364 9.10906C8.58977 9.20366 8.59327 9.30001 8.59327 9.39723C8.59327 11.7665 6.66605 13.6951 4.29664 13.6951C1.92723 13.6951 0 11.7665 0 9.39723C0 7.028 1.92723 5.09845 4.29664 5.09845C4.52867 5.09845 4.75634 5.11684 4.97874 5.15275V7.47907C4.76509 7.40287 4.53568 7.3617 4.29664 7.3617C3.17498 7.3617 2.26171 8.27436 2.26171 9.39723C2.26171 10.5201 3.17498 11.4328 4.29664 11.4328C5.4183 11.4328 6.33156 10.5192 6.33156 9.39723C6.33156 9.35519 6.33069 9.31315 6.32806 9.2711V0H8.68609C8.69484 0.199699 8.70273 0.401153 8.71148 0.600852C8.72724 0.994118 8.86734 1.37162 9.11163 1.6808C9.39796 2.04428 9.82088 2.46646 10.4145 2.80367C10.9706 3.1181 11.4924 3.25386 11.8619 3.3178V3.31605Z" fill="white"/>
</svg>
