<svg width="11" height="14" viewBox="0 0 11 14" fill="none" xmlns="http://www.w3.org/2000/svg">
<path d="M2.6224 10.3906H7.93316V9.40104H2.6224V10.3906ZM2.6224 7.5868H7.93316V6.59722H2.6224V7.5868ZM0.989583 13.1944C0.725694 13.1944 0.494792 13.0955 0.296875 12.8976C0.0989583 12.6997 0 12.4687 0 12.2049V0.989581C0 0.725693 0.0989583 0.49479 0.296875 0.296873C0.494792 0.0989561 0.725694 -1.90735e-06 0.989583 -1.90735e-06H6.94358L10.5556 3.61198V12.2049C10.5556 12.4687 10.4566 12.6997 10.2587 12.8976C10.0608 13.0955 9.82986 13.1944 9.56597 13.1944H0.989583ZM6.44878 4.05729V0.989581H0.989583V12.2049H9.56597V4.05729H6.44878ZM0.989583 0.989581V4.05729V12.2049V0.989581Z" fill="#222222"/>
</svg>
