<svg width="16" height="8" viewBox="0 0 16 8" fill="none" xmlns="http://www.w3.org/2000/svg">
<path d="M3.95833 5.07986C3.65046 5.07986 3.38657 4.9699 3.16667 4.75C2.94676 4.53009 2.83681 4.2662 2.83681 3.95833C2.83681 3.65046 2.94676 3.38657 3.16667 3.16666C3.38657 2.94676 3.65046 2.8368 3.95833 2.8368C4.2662 2.8368 4.53009 2.94676 4.75 3.16666C4.96991 3.38657 5.07986 3.65046 5.07986 3.95833C5.07986 4.2662 4.96991 4.53009 4.75 4.75C4.53009 4.9699 4.2662 5.07986 3.95833 5.07986ZM3.95833 7.91666C2.8588 7.91666 1.92419 7.53183 1.15451 6.76215C0.384838 5.99247 0 5.05787 0 3.95833C0 2.85879 0.384838 1.92419 1.15451 1.15451C1.92419 0.384835 2.8588 -2.86102e-06 3.95833 -2.86102e-06C4.75 -2.86102e-06 5.44271 0.186919 6.03646 0.560761C6.63021 0.934604 7.09751 1.50087 7.43837 2.25955H13.3099L15.1736 4.12326L12.4193 6.6467L10.9679 5.59114L9.51649 6.6467L8.27951 5.65712H7.43837C7.16348 6.31684 6.73192 6.85836 6.14366 7.28168C5.55541 7.705 4.82697 7.91666 3.95833 7.91666ZM3.95833 6.92708C4.59607 6.92708 5.18432 6.71542 5.72309 6.2921C6.26186 5.86878 6.60822 5.32725 6.76215 4.66753H8.64236L9.53299 5.40972L10.9844 4.37066L12.3368 5.39323L13.7387 4.09028L12.8976 3.24913H6.76215C6.63021 2.63339 6.30035 2.10286 5.77257 1.65755C5.24479 1.21224 4.64005 0.989581 3.95833 0.989581C3.13368 0.989581 2.43273 1.27821 1.85547 1.85547C1.27821 2.43272 0.989583 3.13368 0.989583 3.95833C0.989583 4.78298 1.27821 5.48394 1.85547 6.0612C2.43273 6.63845 3.13368 6.92708 3.95833 6.92708Z" fill="#222222"/>
</svg>
