<svg width="14" height="14" viewBox="0 0 14 14" fill="none" xmlns="http://www.w3.org/2000/svg">
<path d="M6.01562 12.0312C5.1862 12.0312 4.4069 11.8763 3.67773 11.5664C2.93945 11.2474 2.29915 10.8167 1.75684 10.2744C1.21452 9.7321 0.783854 9.0918 0.464844 8.35352C0.154948 7.62435 0 6.84505 0 6.01562C0 5.1862 0.154948 4.4069 0.464844 3.67773C0.783854 2.93945 1.21452 2.29915 1.75684 1.75684C2.29915 1.21452 2.93945 0.783854 3.67773 0.464844C4.4069 0.154948 5.1862 0 6.01562 0C6.84505 0 7.62435 0.154948 8.35352 0.464844C9.0918 0.783854 9.7321 1.21452 10.2744 1.75684C10.8167 2.29915 11.2474 2.93945 11.5664 3.67773C11.8763 4.4069 12.0312 5.1862 12.0312 6.01562C12.0312 6.84505 11.8763 7.62435 11.5664 8.35352C11.2474 9.0918 10.8167 9.7321 10.2744 10.2744C9.7321 10.8167 9.0918 11.2474 8.35352 11.5664C7.62435 11.8763 6.84505 12.0312 6.01562 12.0312ZM6.01562 1.20312C5.35026 1.20312 4.72591 1.33073 4.14258 1.58594C3.56836 1.83203 3.0625 2.17155 2.625 2.60449C2.1875 3.03743 1.8457 3.54557 1.59961 4.12891C1.3444 4.71224 1.2168 5.33659 1.2168 6.00195C1.2168 6.66732 1.3444 7.28711 1.59961 7.86133C1.8457 8.44466 2.1875 8.95508 2.625 9.39258C3.0625 9.83008 3.56836 10.1719 4.14258 10.418C4.72591 10.6732 5.35026 10.8008 6.01562 10.8008C6.68099 10.8008 7.30534 10.6732 7.88867 10.418C8.472 10.1719 8.98014 9.83008 9.41309 9.39258C9.84603 8.95508 10.1855 8.44466 10.4316 7.86133C10.6868 7.28711 10.8145 6.66732 10.8145 6.00195C10.8145 5.33659 10.6868 4.71224 10.4316 4.12891C10.1855 3.54557 9.84603 3.03743 9.41309 2.60449C8.98014 2.17155 8.472 1.83203 7.88867 1.58594C7.30534 1.33073 6.68099 1.20312 6.01562 1.20312ZM13.3984 14C13.3164 14 13.2389 13.984 13.166 13.9521C13.0931 13.9202 13.0293 13.877 12.9746 13.8223L9.66602 10.5137C9.62044 10.459 9.58398 10.3975 9.55664 10.3291C9.5293 10.2607 9.51562 10.1855 9.51562 10.1035C9.51562 9.93945 9.57259 9.80046 9.68652 9.68652C9.80046 9.57259 9.93945 9.51562 10.1035 9.51562C10.1855 9.51562 10.2607 9.5293 10.3291 9.55664C10.3975 9.58398 10.459 9.62044 10.5137 9.66602L13.8223 12.9746C13.877 13.0293 13.9202 13.0931 13.9521 13.166C13.984 13.2389 14 13.3164 14 13.3984C14 13.4805 13.984 13.5579 13.9521 13.6309C13.9202 13.7038 13.877 13.7676 13.8223 13.8223C13.7676 13.877 13.7038 13.9202 13.6309 13.9521C13.5579 13.984 13.4805 14 13.3984 14Z" fill="#222222"/>
</svg>
