<svg width="17" height="12" viewBox="0 0 17 12" fill="none" xmlns="http://www.w3.org/2000/svg">
<path d="M15.8747 2.9935C15.7763 2.04398 15.5647 0.994341 14.7858 0.442729C14.1826 0.0149652 13.3897 -0.000848771 12.6494 2.95927e-05C11.0846 2.95927e-05 9.51897 0.00266812 7.95419 0.00354648C6.44911 0.00530321 4.94404 0.0061805 3.43896 0.00793723C2.81024 0.00793723 2.19908 -0.0403739 1.61514 0.231919C1.11374 0.465564 0.721224 0.910019 0.485014 1.40454C0.157481 2.0923 0.0889918 2.87141 0.0494771 3.63207C-0.0234057 5.01725 -0.0155027 6.40594 0.0714297 7.79024C0.135531 8.80036 0.297978 9.91676 1.07861 10.5606C1.77056 11.1307 2.74701 11.1588 3.64444 11.1596C6.49301 11.1623 9.34247 11.1649 12.1919 11.1667C12.5572 11.1676 12.9383 11.1605 13.3106 11.1201C14.043 11.0411 14.7411 10.8311 15.2117 10.2883C15.6868 9.74109 15.8088 8.97955 15.8808 8.25841C16.0565 6.50871 16.0547 4.74232 15.8747 2.9935ZM6.30686 8.03619V3.13052L10.5534 5.58291L6.30686 8.03619Z" fill="white"/>
</svg>
